<?xml version="1.0" encoding="UTF-8" standalone="no"?><!DOCTYPE svg PUBLIC "-//W3C//DTD SVG 1.1//EN" "http://www.w3.org/Graphics/SVG/1.1/DTD/svg11.dtd"><svg width="100%" height="100%" viewBox="0 0 16 16" version="1.1" xmlns="http://www.w3.org/2000/svg" xmlns:xlink="http://www.w3.org/1999/xlink" xml:space="preserve" xmlns:serif="http://www.serif.com/" style="fill-rule:evenodd;clip-rule:evenodd;stroke-linejoin:round;stroke-miterlimit:1.41421;"><rect id="favicon" x="0" y="0" width="16" height="16" style="fill:none;"/><g><path d="M0.597,9.788c0.055,-0.126 0.13,-0.236 0.224,-0.33c0.094,-0.094 0.2,-0.165 0.318,-0.212c0.118,-0.047 0.243,-0.073 0.377,-0.076c0.133,-0.004 0.263,0.021 0.388,0.076c0.259,0.11 0.44,0.293 0.542,0.548c0.102,0.255 0.102,0.512 0,0.771c-0.086,0.188 -0.122,0.353 -0.106,0.495c0.016,0.141 0.043,0.259 0.083,0.353c0.047,0.11 0.117,0.204 0.212,0.283c-0.165,0.007 -0.338,-0.004 -0.519,-0.036c-0.157,-0.031 -0.327,-0.08 -0.512,-0.147c-0.184,-0.067 -0.367,-0.175 -0.548,-0.324c-0.526,-0.432 -0.679,-0.899 -0.459,-1.401Zm4.013,1.955c-0.015,0.008 -0.033,0.011 -0.053,0.011c-0.019,0 -0.037,0.004 -0.053,0.012l0,-2.708l0,-4.824l2.155,0l0,4.659c0,0.345 -0.055,0.675 -0.164,0.989c-0.11,0.314 -0.26,0.597 -0.448,0.848c-0.188,0.251 -0.406,0.465 -0.654,0.642c-0.247,0.176 -0.508,0.3 -0.783,0.371Z" style="fill-rule:nonzero;"/><path d="M15.407,6.318c-0.063,0.134 -0.146,0.251 -0.248,0.354c-0.102,0.102 -0.217,0.178 -0.347,0.229c-0.13,0.051 -0.267,0.079 -0.412,0.083c-0.145,0.004 -0.285,-0.026 -0.418,-0.089c-0.142,-0.055 -0.261,-0.135 -0.359,-0.241c-0.099,-0.106 -0.173,-0.224 -0.224,-0.353c-0.051,-0.13 -0.079,-0.265 -0.083,-0.407c-0.004,-0.141 0.026,-0.278 0.089,-0.412c0.086,-0.204 0.123,-0.383 0.112,-0.536c-0.012,-0.153 -0.042,-0.28 -0.089,-0.383c-0.055,-0.117 -0.129,-0.219 -0.223,-0.306c0.172,0 0.357,0.016 0.553,0.047c0.165,0.032 0.345,0.085 0.542,0.159c0.196,0.075 0.396,0.191 0.6,0.348c0.558,0.455 0.727,0.958 0.507,1.507Zm-0.212,2.351l0,3.027l-2.332,0c0.306,-0.22 0.605,-0.479 0.895,-0.778c0.251,-0.251 0.508,-0.565 0.771,-0.942c0.263,-0.377 0.485,-0.812 0.666,-1.307Z" style="fill-rule:nonzero;"/><path d="M11.476,11.656c-0.463,0 -0.905,-0.099 -1.325,-0.295c-0.42,-0.196 -0.789,-0.463 -1.107,-0.799c-0.318,-0.336 -0.573,-0.729 -0.765,-1.179c-0.193,-0.449 -0.289,-0.931 -0.289,-1.443c0,-0.513 0.092,-0.994 0.277,-1.444c0.184,-0.449 0.436,-0.84 0.754,-1.173c0.318,-0.333 0.683,-0.596 1.095,-0.79c0.412,-0.193 0.85,-0.289 1.313,-0.289l0.082,0c-0.157,0.14 -0.3,0.333 -0.429,0.579c-0.13,0.247 -0.242,0.531 -0.336,0.854c-0.094,0.323 -0.167,0.676 -0.218,1.059c-0.051,0.383 -0.076,0.784 -0.076,1.204c0,0.419 0.025,0.82 0.076,1.203c0.051,0.383 0.124,0.736 0.218,1.059c0.094,0.323 0.206,0.61 0.336,0.859c0.129,0.25 0.272,0.448 0.429,0.595l-0.035,0Z" style="fill-rule:nonzero;"/></g></svg>