<?xml version="1.0" encoding="UTF-8" standalone="no"?><!DOCTYPE svg PUBLIC "-//W3C//DTD SVG 1.1//EN" "http://www.w3.org/Graphics/SVG/1.1/DTD/svg11.dtd"><svg width="30rem" height="8rem" viewBox="0 0 83 14" version="1.1" xmlns="http://www.w3.org/2000/svg" xmlns:xlink="http://www.w3.org/1999/xlink" xml:space="preserve" xmlns:serif="http://www.serif.com/" style="fill-rule:evenodd;clip-rule:evenodd;stroke-linejoin:round;stroke-miterlimit:1.41421;"><g><g><path d="M8.383,1.074l0,9.023l-1.318,0l0,-9.023l1.318,0Zm-7.405,0.147l4.221,0l0,2.14c0,2.716 -1.377,5.044 -3.742,6.35l-0.909,-1.003c2.106,-1.075 3.324,-3.018 3.324,-5.211l0,-1.013l-2.894,0l0,-1.263Z" style="fill-rule:nonzero;"/><path d="M16.766,7.1l0,2.945l-7.415,0l0,-2.945l7.415,0Zm-6.088,1.859l4.761,0l0,-0.783l-4.761,0l0,0.783Zm-1.746,-3.478l8.253,0l0,1.097l-8.253,0l0,-1.097Zm3.892,-4.26l0,3.738l-3.473,0l0,-3.738l1.178,0l0,0.898l1.117,0l0,-0.898l1.178,0Zm-2.295,2.725l1.117,0l0,-0.814l-1.117,0l0,0.814Zm6.237,-2.725l0,3.738l-3.473,0l0,-3.738l1.178,0l0,0.898l1.117,0l0,-0.898l1.178,0Zm-2.295,2.725l1.117,0l0,-0.814l-1.117,0l0,0.814Z" style="fill-rule:nonzero;"/><path d="M23.133,3.675c0,1.503 -1.018,2.6 -2.584,2.6c-1.577,0 -2.575,-1.097 -2.575,-2.6c0,-1.494 0.998,-2.601 2.575,-2.601c1.566,0 2.584,1.107 2.584,2.601Zm-1.287,0c0,-0.815 -0.499,-1.431 -1.297,-1.431c-0.799,0 -1.298,0.616 -1.298,1.431c0,0.814 0.499,1.43 1.298,1.43c0.798,0 1.297,-0.616 1.297,-1.43Zm2.355,6.422l0,-9.023l1.318,0l0,9.023l-1.318,0Zm-6.467,-0.344l0,-1.264l5.898,0l0,1.264l-5.898,0Z" style="fill-rule:nonzero;"/><path d="M34.321,8.478l0,1.275l-8.253,0l0,-1.275l1.417,0l0,-3.728l1.317,0l0,3.728l1.218,0l0,-3.728l1.307,0l0,3.728l2.994,0Zm-0.419,-0.929l-1.328,0l0,-5.054l-6.087,0l0,-1.274l7.415,0l0,6.328Z" style="fill-rule:nonzero;"/><path d="M42.654,1.074l0,9.023l-1.317,0l0,-9.023l1.317,0Zm-2.525,3.969c0,1.211 -0.938,2.015 -2.335,2.015l-0.14,0c-1.377,0 -2.315,-0.804 -2.315,-2.015c0,-1.191 0.938,-2.005 2.315,-2.005l0.14,0c1.397,0 2.335,0.814 2.335,2.005Zm-1.297,0c0,-0.543 -0.429,-0.93 -1.038,-0.93l-0.14,0c-0.608,0 -1.028,0.387 -1.028,0.93c0,0.553 0.42,0.929 1.028,0.929l0.14,0c0.609,0 1.038,-0.376 1.038,-0.929Zm1.986,3.446l0,1.264l-5.948,0l0,-1.264l2.225,0l0,-1.18l1.318,0l0,1.18l2.405,0Zm-0.399,-6.892l0,1.138l-5.409,0l0,-1.138l2.016,0l0,-0.867l1.367,0l0,0.867l2.026,0Z" style="fill-rule:nonzero;"/></g><g><g><path d="M45.417,9.544c-0.057,0 -0.099,-0.003 -0.128,-0.01l-0.01,0c-0.078,-0.014 -0.149,-0.039 -0.213,-0.075c-0.064,-0.035 -0.114,-0.092 -0.149,-0.17c-0.007,0 -0.011,-0.004 -0.011,-0.011c-0.043,-0.078 -0.062,-0.154 -0.059,-0.229c0.004,-0.074 0.013,-0.157 0.027,-0.25l0,-0.01c0.043,-0.178 0.114,-0.366 0.213,-0.564c0.057,-0.121 0.119,-0.238 0.186,-0.352c0.068,-0.113 0.126,-0.209 0.176,-0.287c0.064,-0.1 0.131,-0.201 0.202,-0.304c0.071,-0.102 0.146,-0.211 0.224,-0.324c0.021,-0.036 0.044,-0.066 0.069,-0.091c0.025,-0.025 0.048,-0.051 0.069,-0.08c0.014,-0.021 0.03,-0.04 0.048,-0.058c0.018,-0.018 0.034,-0.037 0.048,-0.059c0.014,-0.021 0.03,-0.04 0.048,-0.058c0.018,-0.018 0.034,-0.037 0.048,-0.059c0.021,-0.028 0.053,-0.064 0.096,-0.106l0,-0.011c0.056,-0.071 0.12,-0.106 0.191,-0.106c0.05,0 0.099,0.017 0.149,0.053l0,0.011c0.043,0.028 0.071,0.078 0.085,0.149c0,0.063 -0.021,0.127 -0.064,0.191c-0.092,0.1 -0.179,0.202 -0.26,0.309c-0.082,0.106 -0.162,0.209 -0.24,0.309c-0.078,0.113 -0.154,0.225 -0.229,0.335c-0.074,0.11 -0.143,0.218 -0.207,0.325c-0.057,0.092 -0.107,0.182 -0.149,0.271c-0.043,0.089 -0.085,0.179 -0.128,0.272c-0.014,0.014 -0.023,0.028 -0.027,0.042c-0.003,0.014 -0.009,0.028 -0.016,0.043c-0.035,0.078 -0.056,0.145 -0.064,0.202c-0.007,0.028 -0.017,0.064 -0.031,0.106c-0.008,0.029 -0.004,0.057 0.01,0.086c0.021,0.021 0.046,0.031 0.075,0.031c0.056,0 0.099,-0.003 0.127,-0.01c0.079,-0.029 0.157,-0.062 0.235,-0.101c0.078,-0.039 0.156,-0.091 0.234,-0.155c0.014,-0.014 0.03,-0.028 0.048,-0.042c0.017,-0.014 0.037,-0.029 0.058,-0.043c0.029,-0.021 0.057,-0.044 0.085,-0.069c0.029,-0.025 0.057,-0.051 0.086,-0.08c0.106,-0.106 0.214,-0.215 0.324,-0.325c0.11,-0.11 0.218,-0.225 0.325,-0.345c0.057,-0.057 0.117,-0.086 0.181,-0.086c0.057,0 0.106,0.022 0.149,0.064c0.057,0.043 0.085,0.092 0.085,0.149c0.014,0.071 -0.007,0.128 -0.064,0.171c-0.085,0.099 -0.181,0.202 -0.287,0.308c-0.107,0.107 -0.213,0.21 -0.32,0.309l0,0.011c-0.071,0.071 -0.143,0.138 -0.218,0.202c-0.074,0.064 -0.158,0.135 -0.25,0.213c-0.057,0.042 -0.113,0.08 -0.17,0.112c-0.057,0.031 -0.124,0.062 -0.203,0.09c-0.014,0.007 -0.031,0.012 -0.053,0.016c-0.021,0.004 -0.039,0.012 -0.053,0.027c-0.021,0.007 -0.044,0.012 -0.069,0.016c-0.025,0.003 -0.048,0.012 -0.069,0.026c-0.036,0.014 -0.089,0.021 -0.16,0.021Zm1.916,-4.045c-0.092,0 -0.167,-0.028 -0.223,-0.085c-0.043,-0.049 -0.064,-0.104 -0.064,-0.165c0,-0.06 0.021,-0.115 0.064,-0.165c0.042,-0.049 0.088,-0.092 0.138,-0.128c0.05,-0.035 0.103,-0.07 0.16,-0.106c0.049,-0.021 0.099,-0.032 0.149,-0.032c0.071,0 0.127,0.018 0.17,0.053l0.011,0c0.056,0.029 0.095,0.093 0.117,0.192c0,0.014 -0.004,0.025 -0.011,0.032c-0.014,0.042 -0.025,0.071 -0.032,0.085c-0.035,0.036 -0.069,0.071 -0.101,0.106c-0.032,0.036 -0.066,0.068 -0.101,0.096c-0.057,0.043 -0.099,0.068 -0.128,0.075c-0.007,0 -0.011,0.003 -0.011,0.01c-0.042,0.022 -0.088,0.032 -0.138,0.032Z" style="fill:#01a08c;fill-rule:nonzero;"/><path d="M49.1,9.555c-0.057,0 -0.128,-0.025 -0.213,-0.074c-0.028,-0.015 -0.053,-0.025 -0.074,-0.032c0,0 -0.007,-0.007 -0.022,-0.022c-0.092,-0.127 -0.138,-0.241 -0.138,-0.34l0,-0.011c-0.014,-0.078 -0.011,-0.151 0.011,-0.218c0.021,-0.068 0.049,-0.14 0.085,-0.218c0.014,-0.029 0.021,-0.054 0.021,-0.075l0.011,0c0.014,-0.035 0.026,-0.073 0.037,-0.112c0.011,-0.039 0.023,-0.076 0.037,-0.111c0.015,-0.029 0.036,-0.078 0.064,-0.149c0,-0.008 0.002,-0.013 0.006,-0.016c0.003,-0.004 0.005,-0.009 0.005,-0.016c0.014,-0.015 0.028,-0.039 0.042,-0.075c0.05,-0.099 0.098,-0.199 0.144,-0.298c0.046,-0.099 0.091,-0.202 0.133,-0.309c0.007,0 0.018,-0.017 0.032,-0.053l0,-0.053c0,-0.028 -0.011,-0.053 -0.032,-0.075c-0.014,-0.007 -0.032,-0.01 -0.053,-0.01l-0.032,0l-0.096,0.032c-0.113,0.028 -0.218,0.071 -0.314,0.127c-0.096,0.057 -0.19,0.114 -0.282,0.171l-0.032,0.021c-0.142,0.099 -0.278,0.206 -0.41,0.319c-0.131,0.114 -0.257,0.231 -0.378,0.352l-0.074,0.074c-0.057,0.057 -0.114,0.112 -0.17,0.165c-0.057,0.053 -0.114,0.108 -0.171,0.165c-0.021,0.014 -0.041,0.03 -0.058,0.048c-0.018,0.018 -0.038,0.034 -0.059,0.048l-0.234,0.234c-0.028,0.043 -0.064,0.078 -0.106,0.107l-0.096,0.095c-0.036,0.029 -0.068,0.057 -0.096,0.086c-0.028,0.028 -0.057,0.053 -0.085,0.074c-0.085,0.064 -0.171,0.096 -0.256,0.096c-0.014,0 -0.026,-0.002 -0.037,-0.005c-0.011,-0.004 -0.023,-0.006 -0.037,-0.006l-0.011,0c-0.071,-0.007 -0.124,-0.046 -0.16,-0.117c-0.035,-0.071 -0.031,-0.145 0.011,-0.223c0.028,-0.057 0.059,-0.109 0.091,-0.155c0.032,-0.046 0.065,-0.097 0.101,-0.154l0.085,-0.128c0.028,-0.042 0.055,-0.083 0.08,-0.122c0.025,-0.039 0.051,-0.077 0.08,-0.112c0.099,-0.135 0.184,-0.266 0.255,-0.394c0.043,-0.078 0.089,-0.145 0.138,-0.202c0.015,-0.014 0.027,-0.032 0.038,-0.053c0.01,-0.022 0.023,-0.039 0.037,-0.054l0.011,0c0.014,-0.035 0.032,-0.067 0.053,-0.095c0.021,-0.029 0.042,-0.061 0.064,-0.096c0.049,-0.071 0.099,-0.144 0.149,-0.218c0.049,-0.075 0.092,-0.155 0.127,-0.24c0.036,-0.085 0.1,-0.128 0.192,-0.128c0.014,0 0.043,0.007 0.085,0.022l0.011,0.01c0.05,0.014 0.089,0.045 0.117,0.091c0.028,0.046 0.035,0.097 0.021,0.154l0,0.043c-0.007,0.014 -0.01,0.039 -0.01,0.074c0,0.043 0.017,0.071 0.053,0.085c0.007,0.007 0.021,0.011 0.042,0.011c0.007,0 0.025,-0.007 0.054,-0.021c0.127,-0.093 0.244,-0.174 0.351,-0.245c0.241,-0.17 0.486,-0.291 0.734,-0.362l0.267,-0.064c0.014,0 0.024,-0.002 0.031,-0.005c0.008,-0.004 0.018,-0.006 0.032,-0.006c0.078,0 0.16,0.022 0.245,0.064c0.085,0.043 0.146,0.096 0.181,0.16c0.014,0.028 0.022,0.05 0.022,0.064c0.007,0.007 0.01,0.014 0.01,0.021c0.036,0.149 0.029,0.291 -0.021,0.426c-0.043,0.142 -0.096,0.277 -0.16,0.404c-0.064,0.128 -0.128,0.252 -0.191,0.373c-0.057,0.099 -0.102,0.197 -0.133,0.293c-0.032,0.096 -0.066,0.193 -0.102,0.292c-0.007,0.015 -0.01,0.029 -0.01,0.043c0,0.014 -0.004,0.028 -0.011,0.043c-0.007,0.028 -0.003,0.056 0.011,0.085c0.007,0.021 0.028,0.032 0.064,0.032c0.007,0.007 0.021,0.01 0.042,0.01c0.078,0 0.147,-0.014 0.208,-0.042c0.06,-0.029 0.112,-0.057 0.154,-0.085c0.014,-0.015 0.03,-0.027 0.048,-0.038c0.018,-0.01 0.034,-0.023 0.048,-0.037c0.05,-0.035 0.096,-0.067 0.138,-0.096c0.043,-0.028 0.085,-0.064 0.128,-0.106c0.142,-0.135 0.28,-0.273 0.415,-0.415l0.011,0l0.394,-0.501c0.042,-0.056 0.103,-0.085 0.181,-0.085c0.049,0 0.099,0.018 0.149,0.053c0.049,0.036 0.078,0.086 0.085,0.15c0.007,0.063 -0.011,0.12 -0.053,0.17c-0.029,0.035 -0.055,0.071 -0.08,0.106c-0.025,0.036 -0.052,0.071 -0.08,0.107c-0.014,0.014 -0.028,0.03 -0.043,0.048c-0.014,0.017 -0.028,0.033 -0.042,0.048c-0.029,0.035 -0.055,0.065 -0.08,0.09c-0.025,0.025 -0.051,0.055 -0.08,0.091c-0.021,0.028 -0.044,0.056 -0.069,0.085c-0.025,0.028 -0.052,0.06 -0.08,0.095c-0.035,0.036 -0.071,0.07 -0.106,0.102c-0.036,0.032 -0.071,0.065 -0.107,0.101c-0.021,0.021 -0.044,0.042 -0.069,0.064c-0.025,0.021 -0.051,0.046 -0.08,0.074c-0.057,0.057 -0.12,0.11 -0.191,0.16c-0.071,0.049 -0.146,0.099 -0.224,0.149c-0.163,0.099 -0.312,0.152 -0.447,0.159l-0.011,0l-0.117,0c-0.057,0 -0.099,0.004 -0.128,0.011l-0.021,0Z" style="fill:#01a08c;fill-rule:nonzero;"/><path d="M52.283,13.27c-0.128,0 -0.245,-0.028 -0.351,-0.085c-0.185,-0.099 -0.277,-0.259 -0.277,-0.479c0.007,-0.27 0.071,-0.522 0.192,-0.756c0.056,-0.085 0.117,-0.175 0.181,-0.271c0.063,-0.096 0.134,-0.204 0.212,-0.325c0.206,-0.255 0.433,-0.495 0.682,-0.718c0.248,-0.224 0.536,-0.446 0.862,-0.666c0.057,-0.035 0.11,-0.074 0.16,-0.117c0.049,-0.042 0.103,-0.081 0.159,-0.117c0.007,-0.007 0.011,-0.011 0.011,-0.011c0.021,-0.028 0.032,-0.071 0.032,-0.127c-0.007,-0.014 -0.011,-0.022 -0.011,-0.022c0,-0.035 -0.012,-0.062 -0.037,-0.079c-0.025,-0.018 -0.048,-0.031 -0.069,-0.038c-0.036,-0.007 -0.073,-0.012 -0.112,-0.016c-0.039,-0.003 -0.076,-0.005 -0.112,-0.005c-0.035,-0.007 -0.071,-0.012 -0.106,-0.016c-0.036,-0.003 -0.071,-0.009 -0.107,-0.016c-0.397,-0.042 -0.706,-0.209 -0.926,-0.5c-0.206,-0.298 -0.277,-0.639 -0.213,-1.022c0.093,-0.483 0.291,-0.951 0.596,-1.405c0.142,-0.206 0.279,-0.399 0.41,-0.58c0.132,-0.181 0.268,-0.346 0.41,-0.495c0.029,-0.036 0.057,-0.07 0.085,-0.102c0.029,-0.031 0.061,-0.065 0.096,-0.101c0.142,-0.163 0.284,-0.324 0.426,-0.484c0.142,-0.16 0.291,-0.314 0.447,-0.463l0,-0.011c0.142,-0.149 0.298,-0.3 0.468,-0.452c0.171,-0.153 0.362,-0.311 0.575,-0.474c0.241,-0.177 0.492,-0.344 0.751,-0.5c0.259,-0.156 0.534,-0.305 0.825,-0.447c0.184,-0.092 0.374,-0.169 0.569,-0.229c0.195,-0.06 0.396,-0.119 0.602,-0.176c0.021,-0.007 0.04,-0.014 0.058,-0.021c0.018,-0.007 0.037,-0.014 0.059,-0.021c0.12,-0.036 0.248,-0.059 0.383,-0.07c0.135,-0.01 0.291,-0.023 0.468,-0.037l0.085,0c0.391,0 0.753,0.128 1.086,0.383c0.1,0.071 0.192,0.157 0.277,0.256c0.121,0.156 0.156,0.326 0.106,0.511c-0.007,0.035 -0.024,0.067 -0.053,0.096c-0.028,0.028 -0.064,0.046 -0.106,0.053l-0.011,0l-0.064,0c-0.071,0 -0.12,-0.021 -0.149,-0.064c-0.035,-0.064 -0.064,-0.128 -0.085,-0.192c-0.043,-0.12 -0.117,-0.212 -0.223,-0.276c-0.228,-0.164 -0.487,-0.252 -0.778,-0.266l-0.117,0c-0.142,0 -0.282,0.008 -0.42,0.026c-0.139,0.018 -0.275,0.048 -0.41,0.091c-0.426,0.113 -0.852,0.276 -1.277,0.489c-0.426,0.213 -0.863,0.486 -1.31,0.82c-0.284,0.206 -0.546,0.429 -0.787,0.671c-0.242,0.241 -0.49,0.5 -0.746,0.777c-0.163,0.17 -0.312,0.34 -0.447,0.511c-0.035,0.042 -0.067,0.083 -0.095,0.122c-0.029,0.039 -0.061,0.076 -0.096,0.112c-0.142,0.163 -0.27,0.328 -0.383,0.495c-0.114,0.167 -0.22,0.324 -0.32,0.474c-0.184,0.298 -0.323,0.638 -0.415,1.021c-0.035,0.185 -0.025,0.348 0.032,0.49c0.106,0.291 0.309,0.454 0.607,0.49c0.127,0.021 0.248,0.032 0.362,0.032c0.163,0 0.312,-0.018 0.447,-0.054c0.135,-0.035 0.266,-0.088 0.394,-0.159c0.071,-0.05 0.142,-0.089 0.212,-0.117c0.057,-0.036 0.116,-0.069 0.176,-0.101c0.06,-0.032 0.119,-0.066 0.176,-0.102c0.766,-0.532 1.398,-1.128 1.895,-1.788c0.163,-0.206 0.319,-0.415 0.468,-0.628c0.149,-0.213 0.298,-0.422 0.447,-0.628c0.036,-0.057 0.069,-0.108 0.101,-0.154c0.032,-0.046 0.066,-0.094 0.101,-0.144c0.05,-0.057 0.096,-0.112 0.139,-0.165c0.042,-0.053 0.085,-0.108 0.127,-0.165c0.05,-0.05 0.114,-0.075 0.192,-0.075c0.036,0 0.075,0.011 0.117,0.032c0.043,0.022 0.075,0.068 0.096,0.139c0.028,0.042 0.028,0.081 0,0.117l0,0.01c-0.014,0.057 -0.046,0.121 -0.096,0.192l-0.16,0.224c-0.042,0.056 -0.085,0.111 -0.127,0.165c-0.043,0.053 -0.082,0.108 -0.117,0.165c-0.057,0.085 -0.11,0.17 -0.16,0.255c-0.05,0.085 -0.099,0.167 -0.149,0.245c-0.057,0.085 -0.11,0.169 -0.16,0.25c-0.049,0.082 -0.099,0.165 -0.149,0.25l-0.01,0c-0.093,0.156 -0.187,0.313 -0.283,0.469c-0.095,0.156 -0.193,0.312 -0.292,0.468c-0.1,0.156 -0.195,0.312 -0.288,0.468c-0.092,0.157 -0.188,0.313 -0.287,0.469c-0.085,0.135 -0.06,0.241 0.074,0.319l0,0.011l0.128,0.053c0,0.007 0.002,0.011 0.005,0.011c0.004,0 0.006,0.003 0.006,0.01c0.014,0.007 0.021,0.011 0.021,0.011c0.007,0.007 0.011,0.011 0.011,0.011c0.064,0.085 0.085,0.163 0.064,0.234c-0.036,0.099 -0.096,0.152 -0.181,0.159c-0.057,0.008 -0.112,0.011 -0.165,0.011c-0.054,0 -0.105,0 -0.155,0c-0.255,0 -0.457,0.11 -0.606,0.33c-0.22,0.334 -0.462,0.681 -0.724,1.043c-0.263,0.362 -0.55,0.714 -0.863,1.054c-0.205,0.234 -0.411,0.445 -0.617,0.634c-0.206,0.188 -0.415,0.353 -0.628,0.495l0,0.01c-0.177,0.128 -0.405,0.224 -0.681,0.288c-0.036,0.007 -0.089,0.01 -0.16,0.01Zm2.512,-3.332c-0.624,0.313 -1.21,0.731 -1.756,1.256c-0.114,0.114 -0.215,0.226 -0.304,0.336c-0.088,0.11 -0.168,0.214 -0.239,0.314l-0.011,0c-0.042,0.064 -0.085,0.135 -0.127,0.213c-0.043,0.078 -0.089,0.166 -0.139,0.266l0,0.01c-0.014,0.036 -0.023,0.071 -0.026,0.107c-0.004,0.035 -0.006,0.071 -0.006,0.106c0,0.015 0.004,0.022 0.011,0.022c0.007,0.042 0.032,0.085 0.074,0.127c0.007,0.008 0.011,0.013 0.011,0.016c0,0.004 0.004,0.009 0.011,0.016c0.021,0.022 0.046,0.032 0.074,0.032l0.032,0l0.096,-0.032c0.028,-0.007 0.055,-0.014 0.08,-0.021c0.025,-0.007 0.051,-0.018 0.08,-0.032c0.078,-0.042 0.156,-0.09 0.234,-0.144c0.078,-0.053 0.152,-0.111 0.223,-0.175c0.142,-0.121 0.288,-0.249 0.437,-0.383c0.149,-0.135 0.291,-0.277 0.426,-0.426c0.17,-0.199 0.335,-0.401 0.495,-0.607c0.159,-0.206 0.317,-0.412 0.473,-0.617c0.029,-0.029 0.048,-0.057 0.059,-0.086c0.01,-0.028 0.023,-0.056 0.037,-0.085c0.014,-0.028 0.021,-0.046 0.021,-0.053c0.036,-0.05 0.029,-0.099 -0.021,-0.149c-0.021,-0.035 -0.057,-0.053 -0.106,-0.053c-0.022,0 -0.045,0.002 -0.07,0.005c-0.024,0.004 -0.047,0.016 -0.069,0.037Z" style="fill:#01a08c;fill-rule:nonzero;"/><path d="M58.319,9.481c-0.029,0 -0.057,-0.002 -0.085,-0.006c-0.029,-0.003 -0.061,-0.005 -0.096,-0.005l-0.011,0c-0.021,0 -0.053,-0.007 -0.096,-0.021c-0.007,0 -0.012,-0.002 -0.016,-0.006c-0.003,-0.003 -0.009,-0.005 -0.016,-0.005c0,0 -0.014,-0.007 -0.042,-0.021c-0.007,0 -0.013,-0.002 -0.016,-0.006c-0.004,-0.003 -0.009,-0.005 -0.016,-0.005c-0.007,-0.007 -0.013,-0.014 -0.016,-0.021c-0.004,-0.007 -0.009,-0.014 -0.016,-0.021c-0.036,-0.036 -0.066,-0.07 -0.091,-0.102c-0.024,-0.032 -0.044,-0.065 -0.058,-0.101c-0.043,-0.078 -0.053,-0.177 -0.032,-0.298l0,-0.01c0.021,-0.235 0.11,-0.497 0.266,-0.788l0,-0.011c0.028,-0.064 0.075,-0.135 0.138,-0.213c0.022,-0.021 0.047,-0.053 0.075,-0.096c0.035,-0.049 0.071,-0.095 0.106,-0.138c0.036,-0.042 0.071,-0.089 0.107,-0.138c0.035,-0.036 0.06,-0.064 0.074,-0.085c0,-0.008 0.004,-0.011 0.011,-0.011c0.014,-0.028 0.032,-0.053 0.053,-0.075c0.022,-0.021 0.046,-0.046 0.075,-0.074l0.01,0c0.036,-0.036 0.07,-0.068 0.102,-0.096c0.031,-0.028 0.065,-0.06 0.101,-0.096c0.014,-0.014 0.03,-0.026 0.048,-0.037c0.017,-0.011 0.033,-0.023 0.047,-0.037c0.093,-0.078 0.189,-0.156 0.288,-0.234c0.099,-0.078 0.206,-0.157 0.319,-0.235c0.341,-0.191 0.671,-0.308 0.99,-0.351l0.011,0c0.035,-0.007 0.066,-0.012 0.09,-0.016c0.025,-0.003 0.055,-0.005 0.091,-0.005c0.156,0 0.305,0.046 0.447,0.138l0,0.011c0.106,0.071 0.177,0.181 0.213,0.33c0.021,0.106 0.021,0.209 0,0.309c-0.036,0.141 -0.089,0.248 -0.16,0.319c-0.042,0.035 -0.089,0.053 -0.138,0.053c-0.064,0 -0.117,-0.018 -0.16,-0.053c-0.092,-0.071 -0.113,-0.167 -0.064,-0.288c0.029,-0.028 0.05,-0.071 0.064,-0.127c0.021,-0.05 0.021,-0.093 0,-0.128c-0.021,-0.035 -0.046,-0.057 -0.074,-0.064c-0.029,-0.007 -0.05,-0.014 -0.064,-0.021l-0.096,0c-0.057,0 -0.108,0.003 -0.154,0.01c-0.047,0.008 -0.098,0.018 -0.155,0.032l-0.01,0.011c-0.199,0.05 -0.394,0.131 -0.586,0.245c-0.135,0.078 -0.259,0.165 -0.372,0.261c-0.114,0.095 -0.224,0.193 -0.33,0.292l0,0.011c-0.022,0.014 -0.054,0.043 -0.096,0.085c-0.029,0.022 -0.055,0.043 -0.08,0.064c-0.025,0.021 -0.052,0.046 -0.08,0.075l0,0.01c-0.014,0.014 -0.023,0.025 -0.027,0.032c-0.003,0.007 -0.012,0.018 -0.026,0.032c-0.085,0.107 -0.169,0.215 -0.25,0.325c-0.082,0.11 -0.151,0.225 -0.208,0.346c-0.05,0.092 -0.082,0.174 -0.096,0.245c-0.014,0.035 -0.023,0.074 -0.026,0.117c-0.004,0.042 -0.009,0.085 -0.016,0.127c-0.014,0.029 -0.007,0.05 0.021,0.064c0.007,0.022 0.028,0.032 0.064,0.032c0.064,0 0.119,-0.01 0.165,-0.032c0.046,-0.021 0.083,-0.039 0.112,-0.053c0.17,-0.092 0.326,-0.206 0.468,-0.341c0.092,-0.071 0.179,-0.141 0.261,-0.212c0.081,-0.071 0.161,-0.146 0.239,-0.224c0.029,-0.021 0.055,-0.044 0.08,-0.069c0.025,-0.025 0.052,-0.048 0.08,-0.069l0.585,-0.522c0.029,-0.021 0.055,-0.043 0.08,-0.064c0.025,-0.021 0.055,-0.042 0.091,-0.064c0.028,-0.021 0.067,-0.032 0.117,-0.032c0.064,0 0.113,0.015 0.149,0.043c0.035,0.028 0.062,0.064 0.08,0.106c0.017,0.043 0.016,0.093 -0.006,0.149c-0.014,0.036 -0.03,0.068 -0.047,0.096c-0.018,0.029 -0.038,0.057 -0.059,0.085c-0.057,0.071 -0.114,0.141 -0.17,0.208c-0.057,0.067 -0.114,0.133 -0.171,0.197l-0.01,0l-0.234,0.33l0,0.011c-0.05,0.085 -0.079,0.17 -0.086,0.255c-0.014,0.035 -0.017,0.064 -0.01,0.085c0.007,0.021 0.017,0.039 0.032,0.053c0.021,0.036 0.064,0.054 0.127,0.054l0.032,0c0.036,0 0.075,-0.008 0.117,-0.022c0.008,0 0.011,-0.003 0.011,-0.01c0.227,-0.1 0.436,-0.238 0.628,-0.415c0.071,-0.057 0.138,-0.118 0.202,-0.181c0.064,-0.064 0.128,-0.125 0.192,-0.181c0.064,-0.05 0.131,-0.114 0.202,-0.192c0.043,-0.057 0.087,-0.11 0.133,-0.16c0.046,-0.049 0.094,-0.103 0.144,-0.159c0.043,-0.05 0.087,-0.1 0.133,-0.149c0.046,-0.05 0.094,-0.103 0.144,-0.16c0.049,-0.064 0.11,-0.096 0.181,-0.096c0.057,0 0.106,0.021 0.149,0.064c0.057,0.035 0.085,0.085 0.085,0.149c0.007,0.064 -0.011,0.124 -0.053,0.181c-0.036,0.035 -0.071,0.074 -0.107,0.117c-0.035,0.043 -0.071,0.082 -0.106,0.117c-0.036,0.036 -0.071,0.075 -0.107,0.117c-0.035,0.043 -0.071,0.085 -0.106,0.128c-0.036,0.035 -0.068,0.069 -0.096,0.101c-0.028,0.032 -0.06,0.066 -0.096,0.101c-0.007,0.007 -0.01,0.011 -0.01,0.011c-0.093,0.099 -0.185,0.195 -0.277,0.287c-0.092,0.093 -0.192,0.178 -0.298,0.256c-0.014,0.014 -0.032,0.026 -0.053,0.037c-0.022,0.011 -0.039,0.023 -0.054,0.037c-0.064,0.05 -0.129,0.1 -0.197,0.149c-0.067,0.05 -0.136,0.1 -0.207,0.149c-0.05,0.029 -0.103,0.059 -0.16,0.091c-0.057,0.032 -0.117,0.055 -0.181,0.069c-0.099,0.021 -0.181,0.032 -0.245,0.032c-0.127,0 -0.237,-0.036 -0.33,-0.106l-0.01,0c-0.156,-0.114 -0.249,-0.249 -0.277,-0.405c0,-0.028 -0.018,-0.05 -0.053,-0.064c-0.007,0 -0.013,-0.002 -0.016,-0.005c-0.004,-0.004 -0.009,-0.006 -0.016,-0.006c-0.021,0 -0.039,0.008 -0.053,0.022c-0.008,0 -0.011,0.002 -0.011,0.005c0,0.004 -0.004,0.005 -0.011,0.005c-0.014,0.008 -0.025,0.015 -0.032,0.022c-0.007,0.007 -0.017,0.014 -0.032,0.021c-0.035,0.028 -0.069,0.053 -0.101,0.075c-0.032,0.021 -0.065,0.046 -0.101,0.074c-0.042,0.036 -0.085,0.067 -0.128,0.096c-0.042,0.028 -0.088,0.057 -0.138,0.085c-0.064,0.043 -0.129,0.078 -0.197,0.106c-0.067,0.029 -0.133,0.054 -0.197,0.075c-0.021,0.007 -0.057,0.011 -0.106,0.011Z" style="fill:#01a08c;fill-rule:nonzero;"/><path d="M63.929,9.555c-0.057,0 -0.128,-0.025 -0.213,-0.074c-0.029,-0.015 -0.053,-0.025 -0.075,-0.032c0,0 -0.007,-0.007 -0.021,-0.022c-0.092,-0.127 -0.138,-0.241 -0.138,-0.34l0,-0.011c-0.015,-0.078 -0.011,-0.151 0.01,-0.218c0.021,-0.068 0.05,-0.14 0.085,-0.218c0.015,-0.029 0.022,-0.054 0.022,-0.075l0.01,0c0.014,-0.035 0.027,-0.073 0.038,-0.112c0.01,-0.039 0.023,-0.076 0.037,-0.111c0.014,-0.029 0.035,-0.078 0.064,-0.149c0,-0.008 0.001,-0.013 0.005,-0.016c0.004,-0.004 0.005,-0.009 0.005,-0.016c0.015,-0.015 0.029,-0.039 0.043,-0.075c0.05,-0.099 0.097,-0.199 0.144,-0.298c0.046,-0.099 0.09,-0.202 0.133,-0.309c0.007,0 0.017,-0.017 0.032,-0.053l0,-0.053c0,-0.028 -0.011,-0.053 -0.032,-0.075c-0.015,-0.007 -0.032,-0.01 -0.054,-0.01l-0.031,0l-0.096,0.032c-0.114,0.028 -0.219,0.071 -0.314,0.127c-0.096,0.057 -0.19,0.114 -0.282,0.171l-0.032,0.021c-0.142,0.099 -0.279,0.206 -0.41,0.319c-0.131,0.114 -0.257,0.231 -0.378,0.352l-0.075,0.074c-0.056,0.057 -0.113,0.112 -0.17,0.165c-0.057,0.053 -0.113,0.108 -0.17,0.165c-0.022,0.014 -0.041,0.03 -0.059,0.048c-0.018,0.018 -0.037,0.034 -0.058,0.048l-0.235,0.234c-0.028,0.043 -0.063,0.078 -0.106,0.107l-0.096,0.095c-0.035,0.029 -0.067,0.057 -0.096,0.086c-0.028,0.028 -0.056,0.053 -0.085,0.074c-0.085,0.064 -0.17,0.096 -0.255,0.096c-0.014,0 -0.027,-0.002 -0.037,-0.005c-0.011,-0.004 -0.024,-0.006 -0.038,-0.006l-0.01,0c-0.071,-0.007 -0.125,-0.046 -0.16,-0.117c-0.036,-0.071 -0.032,-0.145 0.011,-0.223c0.028,-0.057 0.058,-0.109 0.09,-0.155c0.032,-0.046 0.066,-0.097 0.101,-0.154l0.085,-0.128c0.029,-0.042 0.055,-0.083 0.08,-0.122c0.025,-0.039 0.052,-0.077 0.08,-0.112c0.099,-0.135 0.185,-0.266 0.256,-0.394c0.042,-0.078 0.088,-0.145 0.138,-0.202c0.014,-0.014 0.027,-0.032 0.037,-0.053c0.011,-0.022 0.023,-0.039 0.037,-0.054l0.011,0c0.014,-0.035 0.032,-0.067 0.053,-0.095c0.022,-0.029 0.043,-0.061 0.064,-0.096c0.05,-0.071 0.1,-0.144 0.149,-0.218c0.05,-0.075 0.092,-0.155 0.128,-0.24c0.035,-0.085 0.099,-0.128 0.192,-0.128c0.014,0 0.042,0.007 0.085,0.022l0.01,0.01c0.05,0.014 0.089,0.045 0.117,0.091c0.029,0.046 0.036,0.097 0.022,0.154l0,0.043c-0.007,0.014 -0.011,0.039 -0.011,0.074c0,0.043 0.018,0.071 0.053,0.085c0.007,0.007 0.022,0.011 0.043,0.011c0.007,0 0.025,-0.007 0.053,-0.021c0.128,-0.093 0.245,-0.174 0.351,-0.245c0.242,-0.17 0.487,-0.291 0.735,-0.362l0.266,-0.064c0.014,0 0.025,-0.002 0.032,-0.005c0.007,-0.004 0.018,-0.006 0.032,-0.006c0.078,0 0.16,0.022 0.245,0.064c0.085,0.043 0.145,0.096 0.181,0.16c0.014,0.028 0.021,0.05 0.021,0.064c0.007,0.007 0.011,0.014 0.011,0.021c0.035,0.149 0.028,0.291 -0.022,0.426c-0.042,0.142 -0.095,0.277 -0.159,0.404c-0.064,0.128 -0.128,0.252 -0.192,0.373c-0.057,0.099 -0.101,0.197 -0.133,0.293c-0.032,0.096 -0.066,0.193 -0.101,0.292c-0.007,0.015 -0.011,0.029 -0.011,0.043c0,0.014 -0.003,0.028 -0.01,0.043c-0.008,0.028 -0.004,0.056 0.01,0.085c0.007,0.021 0.029,0.032 0.064,0.032c0.007,0.007 0.021,0.01 0.043,0.01c0.078,0 0.147,-0.014 0.207,-0.042c0.061,-0.029 0.112,-0.057 0.155,-0.085c0.014,-0.015 0.03,-0.027 0.048,-0.038c0.017,-0.01 0.033,-0.023 0.047,-0.037c0.05,-0.035 0.096,-0.067 0.139,-0.096c0.042,-0.028 0.085,-0.064 0.128,-0.106c0.141,-0.135 0.28,-0.273 0.415,-0.415l0.01,0l0.394,-0.501c0.043,-0.056 0.103,-0.085 0.181,-0.085c0.05,0 0.1,0.018 0.149,0.053c0.05,0.036 0.078,0.086 0.085,0.15c0.007,0.063 -0.01,0.12 -0.053,0.17c-0.028,0.035 -0.055,0.071 -0.08,0.106c-0.025,0.036 -0.051,0.071 -0.08,0.107c-0.014,0.014 -0.028,0.03 -0.042,0.048c-0.014,0.017 -0.029,0.033 -0.043,0.048c-0.028,0.035 -0.055,0.065 -0.08,0.09c-0.024,0.025 -0.051,0.055 -0.079,0.091c-0.022,0.028 -0.045,0.056 -0.07,0.085c-0.024,0.028 -0.051,0.06 -0.079,0.095c-0.036,0.036 -0.071,0.07 -0.107,0.102c-0.035,0.032 -0.071,0.065 -0.106,0.101c-0.022,0.021 -0.045,0.042 -0.07,0.064c-0.024,0.021 -0.051,0.046 -0.079,0.074c-0.057,0.057 -0.121,0.11 -0.192,0.16c-0.071,0.049 -0.145,0.099 -0.223,0.149c-0.164,0.099 -0.313,0.152 -0.448,0.159l-0.01,0l-0.117,0c-0.057,0 -0.1,0.004 -0.128,0.011l-0.021,0Z" style="fill:#01a08c;fill-rule:nonzero;"/><path d="M64.865,11.801c-0.035,0 -0.067,0 -0.095,0c-0.029,0 -0.061,-0.003 -0.096,-0.01l-0.011,0c-0.142,-0.022 -0.252,-0.107 -0.33,-0.256l0,-0.011c-0.007,-0.007 -0.012,-0.016 -0.016,-0.026c-0.003,-0.011 -0.009,-0.023 -0.016,-0.037l0,-0.022l0,-0.01c-0.035,-0.078 -0.042,-0.151 -0.021,-0.219c0.021,-0.067 0.043,-0.118 0.064,-0.154c0.085,-0.135 0.206,-0.266 0.362,-0.394c0.12,-0.099 0.252,-0.195 0.394,-0.287c0.142,-0.092 0.294,-0.181 0.457,-0.266c0.036,-0.015 0.068,-0.032 0.096,-0.054c0.029,-0.021 0.057,-0.039 0.085,-0.053c0.022,-0.014 0.043,-0.026 0.064,-0.037c0.021,-0.011 0.039,-0.023 0.053,-0.037l0.011,0c0.021,-0.014 0.043,-0.025 0.064,-0.032c0.021,-0.007 0.042,-0.018 0.064,-0.032c0.007,-0.007 0.014,-0.013 0.021,-0.016c0.007,-0.004 0.014,-0.009 0.021,-0.016c0.1,-0.05 0.199,-0.098 0.298,-0.144c0.1,-0.046 0.199,-0.09 0.298,-0.133l0.011,0c0.234,-0.121 0.39,-0.27 0.468,-0.447l0,-0.021c0.008,-0.014 0.016,-0.03 0.027,-0.048c0.011,-0.018 0.023,-0.034 0.037,-0.048c0.029,-0.043 0.025,-0.082 -0.01,-0.117c-0.022,-0.036 -0.05,-0.053 -0.085,-0.053c-0.008,0 -0.025,0.007 -0.054,0.021c-0.014,0.014 -0.028,0.023 -0.042,0.027c-0.014,0.003 -0.029,0.012 -0.043,0.026c-0.028,0.014 -0.064,0.036 -0.106,0.064l-0.011,0c-0.17,0.128 -0.348,0.227 -0.532,0.298c-0.05,0.014 -0.098,0.025 -0.144,0.032c-0.046,0.007 -0.09,0.014 -0.133,0.021l-0.011,0c-0.014,0.007 -0.035,0.011 -0.063,0.011c-0.086,0 -0.181,-0.028 -0.288,-0.085c-0.156,-0.078 -0.266,-0.234 -0.33,-0.469c0,-0.035 0,-0.072 0,-0.111c0,-0.039 0.004,-0.08 0.011,-0.123c0.014,-0.078 0.032,-0.151 0.053,-0.218c0.021,-0.067 0.05,-0.133 0.085,-0.197l0.192,-0.394c0.028,-0.035 0.055,-0.069 0.08,-0.101c0.024,-0.032 0.051,-0.062 0.079,-0.09l0.128,-0.128c0.1,-0.107 0.202,-0.21 0.309,-0.309l0.011,0c0.042,-0.035 0.085,-0.069 0.127,-0.101c0.043,-0.032 0.085,-0.066 0.128,-0.101c0.036,-0.021 0.069,-0.044 0.101,-0.069c0.032,-0.025 0.066,-0.052 0.101,-0.08c0.071,-0.05 0.142,-0.089 0.213,-0.117c0.071,-0.029 0.146,-0.061 0.224,-0.096c0.035,-0.014 0.071,-0.03 0.106,-0.048c0.036,-0.018 0.071,-0.034 0.107,-0.048c0.071,-0.035 0.142,-0.062 0.213,-0.08c0.07,-0.017 0.141,-0.033 0.212,-0.048c0.036,-0.007 0.068,-0.014 0.096,-0.021c0.029,-0.007 0.061,-0.014 0.096,-0.021c0.036,-0.007 0.069,-0.013 0.101,-0.016c0.032,-0.004 0.066,-0.005 0.101,-0.005c0.036,0 0.069,0.001 0.101,0.005c0.032,0.003 0.066,0.009 0.102,0.016c0.042,0.014 0.083,0.03 0.122,0.048c0.039,0.017 0.08,0.041 0.122,0.069c0.043,0.035 0.071,0.078 0.086,0.128c0.014,0.049 0.003,0.103 -0.032,0.159c-0.05,0.085 -0.114,0.128 -0.192,0.128c-0.014,0 -0.035,-0.007 -0.064,-0.021c-0.085,-0.043 -0.174,-0.064 -0.266,-0.064c-0.05,0 -0.098,0.005 -0.144,0.016c-0.046,0.011 -0.09,0.023 -0.133,0.037c-0.021,0 -0.035,0.004 -0.042,0.011c-0.142,0.035 -0.275,0.078 -0.4,0.128c-0.124,0.049 -0.228,0.095 -0.314,0.138c-0.056,0.028 -0.108,0.058 -0.154,0.09c-0.046,0.032 -0.097,0.066 -0.154,0.102c-0.022,0.021 -0.046,0.039 -0.075,0.053c-0.092,0.064 -0.174,0.131 -0.245,0.202c-0.071,0.071 -0.142,0.142 -0.213,0.213c-0.021,0.028 -0.044,0.053 -0.069,0.074c-0.025,0.022 -0.048,0.043 -0.069,0.064c-0.064,0.071 -0.115,0.146 -0.154,0.224c-0.039,0.078 -0.077,0.156 -0.112,0.234c-0.028,0.05 -0.048,0.099 -0.059,0.149c-0.01,0.05 -0.023,0.099 -0.037,0.149l0,0.011c-0.014,0.049 -0.014,0.09 0,0.122c0.014,0.032 0.029,0.055 0.043,0.069c0.035,0.036 0.078,0.054 0.127,0.054c0.05,0 0.086,-0.008 0.107,-0.022c0.064,-0.021 0.131,-0.048 0.202,-0.08c0.071,-0.031 0.139,-0.069 0.202,-0.111c0.114,-0.064 0.22,-0.13 0.32,-0.197c0.099,-0.068 0.202,-0.14 0.308,-0.218c0.064,-0.05 0.125,-0.102 0.181,-0.155c0.057,-0.053 0.114,-0.108 0.171,-0.165c0.085,-0.078 0.172,-0.158 0.261,-0.239c0.088,-0.082 0.172,-0.165 0.25,-0.251c0.028,-0.028 0.057,-0.055 0.085,-0.079c0.028,-0.025 0.053,-0.055 0.074,-0.091c0.057,-0.078 0.125,-0.117 0.203,-0.117c0.056,0 0.103,0.014 0.138,0.043c0,0.007 0.004,0.01 0.011,0.01c0.064,0.043 0.096,0.098 0.096,0.165c0,0.068 -0.018,0.13 -0.054,0.187c-0.177,0.248 -0.323,0.503 -0.436,0.766l-0.011,0.011c-0.014,0.028 -0.028,0.056 -0.042,0.085c-0.015,0.028 -0.029,0.06 -0.043,0.096c-0.028,0.049 -0.053,0.099 -0.074,0.149c-0.015,0.014 -0.022,0.025 -0.022,0.032c0,0.007 -0.003,0.014 -0.01,0.021c-0.008,0.007 -0.011,0.014 -0.011,0.021c0,0.007 -0.004,0.014 -0.011,0.021c-0.021,0.022 -0.025,0.05 -0.01,0.086c0.007,0.014 0.014,0.023 0.021,0.026c0.007,0.004 0.014,0.009 0.021,0.016c0.029,0.014 0.05,0.021 0.064,0.021c0.014,0 0.028,-0.003 0.043,-0.01c0.177,-0.085 0.315,-0.167 0.415,-0.245c0,-0.007 0.003,-0.011 0.01,-0.011c0.079,-0.063 0.153,-0.127 0.224,-0.191c0.071,-0.064 0.146,-0.132 0.224,-0.202c0.049,-0.05 0.097,-0.1 0.143,-0.15c0.046,-0.049 0.098,-0.102 0.155,-0.159c0.049,-0.05 0.106,-0.075 0.17,-0.075c0.021,0 0.053,0.007 0.096,0.022c0.106,0.049 0.149,0.127 0.127,0.234l0,0.01c0,0.036 -0.017,0.078 -0.053,0.128l-0.149,0.149c-0.078,0.078 -0.151,0.151 -0.218,0.218c-0.067,0.068 -0.14,0.137 -0.218,0.208c-0.213,0.184 -0.454,0.348 -0.724,0.49l-0.213,0.127c-0.05,0.022 -0.094,0.045 -0.133,0.07c-0.039,0.024 -0.08,0.047 -0.122,0.069c-0.036,0.021 -0.075,0.041 -0.118,0.058c-0.042,0.018 -0.081,0.034 -0.117,0.048c-0.035,0.014 -0.071,0.03 -0.106,0.048c-0.036,0.018 -0.071,0.034 -0.107,0.048c-0.056,0.021 -0.102,0.057 -0.138,0.106c-0.014,0.036 -0.032,0.066 -0.053,0.091c-0.021,0.025 -0.043,0.055 -0.064,0.09c-0.036,0.057 -0.073,0.114 -0.112,0.171c-0.039,0.057 -0.08,0.113 -0.122,0.17c-0.043,0.057 -0.087,0.112 -0.133,0.165c-0.046,0.053 -0.094,0.108 -0.144,0.165c-0.007,0.007 -0.011,0.011 -0.011,0.011c-0.021,0.021 -0.035,0.039 -0.042,0.053c-0.021,0.021 -0.053,0.06 -0.096,0.117c-0.05,0.057 -0.101,0.108 -0.154,0.154c-0.054,0.047 -0.112,0.094 -0.176,0.144l0,0.011c-0.092,0.078 -0.192,0.152 -0.298,0.223c-0.107,0.071 -0.224,0.142 -0.351,0.213c-0.149,0.078 -0.298,0.128 -0.447,0.149l-0.086,0Zm1.065,-1.352c-0.014,0 -0.028,0.004 -0.043,0.011c-0.205,0.106 -0.394,0.213 -0.564,0.319c-0.17,0.107 -0.326,0.234 -0.468,0.384c-0.022,0.035 -0.029,0.07 -0.022,0.106c0.022,0.028 0.05,0.043 0.086,0.043l0.01,0c0.1,-0.008 0.211,-0.048 0.336,-0.123c0.124,-0.074 0.211,-0.129 0.26,-0.165c0.022,-0.014 0.055,-0.037 0.102,-0.069c0.046,-0.032 0.094,-0.069 0.143,-0.112c0.05,-0.042 0.098,-0.087 0.144,-0.133c0.046,-0.046 0.08,-0.09 0.101,-0.133c0.021,-0.035 0.014,-0.071 -0.021,-0.106c-0.014,-0.015 -0.036,-0.022 -0.064,-0.022Z" style="fill:#01a08c;fill-rule:nonzero;"/></g><g><path d="M71.253,9.555c-0.057,0 -0.128,-0.025 -0.213,-0.074c-0.028,-0.015 -0.053,-0.025 -0.074,-0.032c0,0 -0.008,-0.007 -0.022,-0.022c-0.092,-0.127 -0.138,-0.241 -0.138,-0.34l0,-0.011c-0.014,-0.078 -0.011,-0.151 0.011,-0.218c0.021,-0.068 0.049,-0.14 0.085,-0.218c0.014,-0.029 0.021,-0.054 0.021,-0.075l0.011,0c0.014,-0.035 0.026,-0.073 0.037,-0.112c0.011,-0.039 0.023,-0.076 0.037,-0.111c0.014,-0.029 0.036,-0.078 0.064,-0.149c0,-0.008 0.002,-0.013 0.005,-0.016c0.004,-0.004 0.006,-0.009 0.006,-0.016c0.014,-0.015 0.028,-0.039 0.042,-0.075c0.05,-0.099 0.098,-0.199 0.144,-0.298c0.046,-0.099 0.09,-0.202 0.133,-0.309c0.007,0 0.018,-0.017 0.032,-0.053l0,-0.053c0,-0.028 -0.011,-0.053 -0.032,-0.075c-0.014,-0.007 -0.032,-0.01 -0.053,-0.01l-0.032,0l-0.096,0.032c-0.113,0.028 -0.218,0.071 -0.314,0.127c-0.096,0.057 -0.19,0.114 -0.282,0.171l-0.032,0.021c-0.142,0.099 -0.279,0.206 -0.41,0.319c-0.131,0.114 -0.257,0.231 -0.378,0.352l-0.074,0.074c-0.057,0.057 -0.114,0.112 -0.171,0.165c-0.056,0.053 -0.113,0.108 -0.17,0.165c-0.021,0.014 -0.041,0.03 -0.058,0.048c-0.018,0.018 -0.038,0.034 -0.059,0.048l-0.234,0.234c-0.029,0.043 -0.064,0.078 -0.107,0.107l-0.095,0.095c-0.036,0.029 -0.068,0.057 -0.096,0.086c-0.029,0.028 -0.057,0.053 -0.085,0.074c-0.086,0.064 -0.171,0.096 -0.256,0.096c-0.014,0 -0.026,-0.002 -0.037,-0.005c-0.011,-0.004 -0.023,-0.006 -0.037,-0.006l-0.011,0c-0.071,-0.007 -0.124,-0.046 -0.16,-0.117c-0.035,-0.071 -0.032,-0.145 0.011,-0.223c0.028,-0.057 0.058,-0.109 0.09,-0.155c0.032,-0.046 0.066,-0.097 0.102,-0.154l0.085,-0.128c0.028,-0.042 0.055,-0.083 0.08,-0.122c0.024,-0.039 0.051,-0.077 0.079,-0.112c0.1,-0.135 0.185,-0.266 0.256,-0.394c0.042,-0.078 0.089,-0.145 0.138,-0.202c0.014,-0.014 0.027,-0.032 0.038,-0.053c0.01,-0.022 0.023,-0.039 0.037,-0.054l0.01,0c0.015,-0.035 0.032,-0.067 0.054,-0.095c0.021,-0.029 0.042,-0.061 0.064,-0.096c0.049,-0.071 0.099,-0.144 0.149,-0.218c0.049,-0.075 0.092,-0.155 0.127,-0.24c0.036,-0.085 0.1,-0.128 0.192,-0.128c0.014,0 0.042,0.007 0.085,0.022l0.011,0.01c0.049,0.014 0.088,0.045 0.117,0.091c0.028,0.046 0.035,0.097 0.021,0.154l0,0.043c-0.007,0.014 -0.011,0.039 -0.011,0.074c0,0.043 0.018,0.071 0.054,0.085c0.007,0.007 0.021,0.011 0.042,0.011c0.007,0 0.025,-0.007 0.053,-0.021c0.128,-0.093 0.245,-0.174 0.352,-0.245c0.241,-0.17 0.486,-0.291 0.734,-0.362l0.266,-0.064c0.015,0 0.025,-0.002 0.032,-0.005c0.007,-0.004 0.018,-0.006 0.032,-0.006c0.078,0 0.16,0.022 0.245,0.064c0.085,0.043 0.146,0.096 0.181,0.16c0.014,0.028 0.021,0.05 0.021,0.064c0.007,0.007 0.011,0.014 0.011,0.021c0.035,0.149 0.028,0.291 -0.021,0.426c-0.043,0.142 -0.096,0.277 -0.16,0.404c-0.064,0.128 -0.128,0.252 -0.192,0.373c-0.056,0.099 -0.101,0.197 -0.133,0.293c-0.032,0.096 -0.065,0.193 -0.101,0.292c-0.007,0.015 -0.01,0.029 -0.01,0.043c0,0.014 -0.004,0.028 -0.011,0.043c-0.007,0.028 -0.004,0.056 0.011,0.085c0.007,0.021 0.028,0.032 0.063,0.032c0.008,0.007 0.022,0.01 0.043,0.01c0.078,0 0.147,-0.014 0.208,-0.042c0.06,-0.029 0.111,-0.057 0.154,-0.085c0.014,-0.015 0.03,-0.027 0.048,-0.038c0.018,-0.01 0.034,-0.023 0.048,-0.037c0.049,-0.035 0.096,-0.067 0.138,-0.096c0.043,-0.028 0.085,-0.064 0.128,-0.106c0.142,-0.135 0.28,-0.273 0.415,-0.415l0.011,0l0.394,-0.501c0.042,-0.056 0.102,-0.085 0.181,-0.085c0.049,0 0.099,0.018 0.149,0.053c0.049,0.036 0.078,0.086 0.085,0.15c0.007,0.063 -0.011,0.12 -0.054,0.17c-0.028,0.035 -0.055,0.071 -0.079,0.106c-0.025,0.036 -0.052,0.071 -0.08,0.107c-0.014,0.014 -0.029,0.03 -0.043,0.048c-0.014,0.017 -0.028,0.033 -0.042,0.048c-0.029,0.035 -0.055,0.065 -0.08,0.09c-0.025,0.025 -0.052,0.055 -0.08,0.091c-0.021,0.028 -0.044,0.056 -0.069,0.085c-0.025,0.028 -0.052,0.06 -0.08,0.095c-0.036,0.036 -0.071,0.07 -0.107,0.102c-0.035,0.032 -0.07,0.065 -0.106,0.101c-0.021,0.021 -0.044,0.042 -0.069,0.064c-0.025,0.021 -0.052,0.046 -0.08,0.074c-0.057,0.057 -0.121,0.11 -0.192,0.16c-0.071,0.049 -0.145,0.099 -0.223,0.149c-0.163,0.099 -0.312,0.152 -0.447,0.159l-0.011,0l-0.117,0c-0.057,0 -0.099,0.004 -0.128,0.011l-0.021,0Z" style="fill:#01a08c;fill-rule:nonzero;"/><path d="M73.095,9.481c-0.029,0 -0.057,-0.002 -0.086,-0.006c-0.028,-0.003 -0.06,-0.005 -0.095,-0.005l-0.011,0c-0.021,0 -0.053,-0.007 -0.096,-0.021c-0.007,0 -0.012,-0.002 -0.016,-0.006c-0.003,-0.003 -0.009,-0.005 -0.016,-0.005c0,0 -0.014,-0.007 -0.042,-0.021c-0.007,0 -0.013,-0.002 -0.016,-0.006c-0.004,-0.003 -0.009,-0.005 -0.016,-0.005c-0.007,-0.007 -0.013,-0.014 -0.016,-0.021c-0.004,-0.007 -0.009,-0.014 -0.016,-0.021c-0.036,-0.036 -0.066,-0.07 -0.091,-0.102c-0.025,-0.032 -0.044,-0.065 -0.058,-0.101c-0.043,-0.078 -0.053,-0.177 -0.032,-0.298l0,-0.01c0.021,-0.235 0.11,-0.497 0.266,-0.788l0,-0.011c0.028,-0.064 0.074,-0.135 0.138,-0.213c0.022,-0.021 0.046,-0.053 0.075,-0.096c0.035,-0.049 0.071,-0.095 0.106,-0.138c0.036,-0.042 0.071,-0.089 0.107,-0.138c0.035,-0.036 0.06,-0.064 0.074,-0.085c0,-0.008 0.004,-0.011 0.011,-0.011c0.014,-0.028 0.032,-0.053 0.053,-0.075c0.021,-0.021 0.046,-0.046 0.075,-0.074l0.01,0c0.036,-0.036 0.069,-0.068 0.101,-0.096c0.032,-0.028 0.066,-0.06 0.102,-0.096c0.014,-0.014 0.03,-0.026 0.047,-0.037c0.018,-0.011 0.034,-0.023 0.048,-0.037c0.093,-0.078 0.188,-0.156 0.288,-0.234c0.099,-0.078 0.206,-0.157 0.319,-0.235c0.341,-0.191 0.671,-0.308 0.99,-0.351l0.011,0c0.035,-0.007 0.065,-0.012 0.09,-0.016c0.025,-0.003 0.055,-0.005 0.091,-0.005c0.156,0 0.305,0.046 0.447,0.138l0,0.011c0.106,0.071 0.177,0.181 0.213,0.33c0.021,0.106 0.021,0.209 0,0.309c-0.036,0.141 -0.089,0.248 -0.16,0.319c-0.043,0.035 -0.089,0.053 -0.138,0.053c-0.064,0 -0.117,-0.018 -0.16,-0.053c-0.092,-0.071 -0.114,-0.167 -0.064,-0.288c0.028,-0.028 0.05,-0.071 0.064,-0.127c0.021,-0.05 0.021,-0.093 0,-0.128c-0.021,-0.035 -0.046,-0.057 -0.075,-0.064c-0.028,-0.007 -0.049,-0.014 -0.063,-0.021l-0.096,0c-0.057,0 -0.108,0.003 -0.155,0.01c-0.046,0.008 -0.097,0.018 -0.154,0.032l-0.011,0.011c-0.198,0.05 -0.393,0.131 -0.585,0.245c-0.135,0.078 -0.259,0.165 -0.373,0.261c-0.113,0.095 -0.223,0.193 -0.33,0.292l0,0.011c-0.021,0.014 -0.053,0.043 -0.095,0.085c-0.029,0.022 -0.055,0.043 -0.08,0.064c-0.025,0.021 -0.052,0.046 -0.08,0.075l0,0.01c-0.014,0.014 -0.023,0.025 -0.027,0.032c-0.003,0.007 -0.012,0.018 -0.026,0.032c-0.085,0.107 -0.169,0.215 -0.25,0.325c-0.082,0.11 -0.151,0.225 -0.208,0.346c-0.05,0.092 -0.082,0.174 -0.096,0.245c-0.014,0.035 -0.023,0.074 -0.026,0.117c-0.004,0.042 -0.009,0.085 -0.016,0.127c-0.015,0.029 -0.008,0.05 0.021,0.064c0.007,0.022 0.028,0.032 0.064,0.032c0.064,0 0.119,-0.01 0.165,-0.032c0.046,-0.021 0.083,-0.039 0.111,-0.053c0.171,-0.092 0.327,-0.206 0.469,-0.341c0.092,-0.071 0.179,-0.141 0.261,-0.212c0.081,-0.071 0.161,-0.146 0.239,-0.224c0.029,-0.021 0.055,-0.044 0.08,-0.069c0.025,-0.025 0.051,-0.048 0.08,-0.069l0.585,-0.522c0.029,-0.021 0.055,-0.043 0.08,-0.064c0.025,-0.021 0.055,-0.042 0.091,-0.064c0.028,-0.021 0.067,-0.032 0.117,-0.032c0.064,0 0.113,0.015 0.149,0.043c0.035,0.028 0.062,0.064 0.08,0.106c0.017,0.043 0.016,0.093 -0.006,0.149c-0.014,0.036 -0.03,0.068 -0.048,0.096c-0.017,0.029 -0.037,0.057 -0.058,0.085c-0.057,0.071 -0.114,0.141 -0.17,0.208c-0.057,0.067 -0.114,0.133 -0.171,0.197l-0.01,0l-0.235,0.33l0,0.011c-0.049,0.085 -0.078,0.17 -0.085,0.255c-0.014,0.035 -0.018,0.064 -0.01,0.085c0.007,0.021 0.017,0.039 0.031,0.053c0.022,0.036 0.064,0.054 0.128,0.054l0.032,0c0.036,0 0.075,-0.008 0.117,-0.022c0.007,0 0.011,-0.003 0.011,-0.01c0.227,-0.1 0.436,-0.238 0.628,-0.415c0.071,-0.057 0.138,-0.118 0.202,-0.181c0.064,-0.064 0.128,-0.125 0.192,-0.181c0.064,-0.05 0.131,-0.114 0.202,-0.192c0.043,-0.057 0.087,-0.11 0.133,-0.16c0.046,-0.049 0.094,-0.103 0.144,-0.159c0.042,-0.05 0.087,-0.1 0.133,-0.149c0.046,-0.05 0.094,-0.103 0.144,-0.16c0.049,-0.064 0.11,-0.096 0.181,-0.096c0.056,0 0.106,0.021 0.149,0.064c0.056,0.035 0.085,0.085 0.085,0.149c0.007,0.064 -0.011,0.124 -0.053,0.181c-0.036,0.035 -0.071,0.074 -0.107,0.117c-0.035,0.043 -0.071,0.082 -0.106,0.117c-0.036,0.036 -0.071,0.075 -0.107,0.117c-0.035,0.043 -0.071,0.085 -0.106,0.128c-0.036,0.035 -0.068,0.069 -0.096,0.101c-0.028,0.032 -0.06,0.066 -0.096,0.101c-0.007,0.007 -0.011,0.011 -0.011,0.011c-0.092,0.099 -0.184,0.195 -0.276,0.287c-0.093,0.093 -0.192,0.178 -0.298,0.256c-0.015,0.014 -0.032,0.026 -0.054,0.037c-0.021,0.011 -0.039,0.023 -0.053,0.037c-0.064,0.05 -0.129,0.1 -0.197,0.149c-0.067,0.05 -0.136,0.1 -0.207,0.149c-0.05,0.029 -0.103,0.059 -0.16,0.091c-0.057,0.032 -0.117,0.055 -0.181,0.069c-0.099,0.021 -0.181,0.032 -0.245,0.032c-0.128,0 -0.238,-0.036 -0.33,-0.106l-0.01,0c-0.157,-0.114 -0.249,-0.249 -0.277,-0.405c0,-0.028 -0.018,-0.05 -0.053,-0.064c-0.008,0 -0.013,-0.002 -0.016,-0.005c-0.004,-0.004 -0.009,-0.006 -0.016,-0.006c-0.022,0 -0.039,0.008 -0.054,0.022c-0.007,0 -0.01,0.002 -0.01,0.005c0,0.004 -0.004,0.005 -0.011,0.005c-0.014,0.008 -0.025,0.015 -0.032,0.022c-0.007,0.007 -0.018,0.014 -0.032,0.021c-0.035,0.028 -0.069,0.053 -0.101,0.075c-0.032,0.021 -0.066,0.046 -0.101,0.074c-0.043,0.036 -0.085,0.067 -0.128,0.096c-0.042,0.028 -0.088,0.057 -0.138,0.085c-0.064,0.043 -0.13,0.078 -0.197,0.106c-0.067,0.029 -0.133,0.054 -0.197,0.075c-0.021,0.007 -0.057,0.011 -0.106,0.011Z" style="fill:#01a08c;fill-rule:nonzero;"/><path d="M80.376,9.534c-0.185,0 -0.337,-0.082 -0.458,-0.245c-0.007,-0.007 -0.011,-0.014 -0.011,-0.021c0,-0.007 -0.003,-0.014 -0.01,-0.022c0,-0.014 -0.004,-0.024 -0.011,-0.032c-0.007,-0.056 -0.012,-0.11 -0.016,-0.159c-0.003,-0.05 0.005,-0.1 0.027,-0.149c0.021,-0.064 0.042,-0.126 0.064,-0.186c0.021,-0.061 0.046,-0.119 0.074,-0.176c0.021,-0.057 0.043,-0.117 0.064,-0.181c0.021,-0.064 0.043,-0.124 0.064,-0.181c0.071,-0.199 0.167,-0.401 0.287,-0.607c0.007,0 0.011,-0.003 0.011,-0.01c0,-0.008 0.002,-0.013 0.005,-0.016c0.004,-0.004 0.006,-0.013 0.006,-0.027l0.031,-0.064c0.015,-0.043 0.011,-0.074 -0.01,-0.096c-0.021,-0.021 -0.046,-0.032 -0.075,-0.032l-0.032,0c0,0.007 -0.007,0.011 -0.021,0.011c-0.014,0 -0.035,0.007 -0.064,0.021c-0.262,0.121 -0.482,0.27 -0.66,0.447l-0.394,0.362c-0.177,0.178 -0.333,0.355 -0.468,0.533c-0.007,0.007 -0.012,0.014 -0.016,0.021c-0.004,0.007 -0.009,0.014 -0.016,0.021c-0.043,0.057 -0.074,0.092 -0.096,0.107l-0.01,0.01c-0.057,0.057 -0.11,0.114 -0.16,0.171c-0.05,0.056 -0.103,0.113 -0.16,0.17c-0.028,0.028 -0.055,0.057 -0.08,0.085c-0.024,0.028 -0.051,0.057 -0.079,0.085c-0.043,0.043 -0.093,0.064 -0.149,0.064c-0.022,0 -0.041,-0.002 -0.059,-0.005c-0.018,-0.004 -0.037,-0.009 -0.059,-0.016c-0.099,-0.029 -0.159,-0.096 -0.18,-0.203l0,-0.01c-0.015,-0.043 -0.004,-0.096 0.031,-0.16c0.057,-0.092 0.118,-0.184 0.181,-0.277c0.064,-0.092 0.125,-0.188 0.181,-0.287l0.128,-0.224c0.014,-0.035 0.032,-0.071 0.053,-0.106c0.022,-0.035 0.043,-0.071 0.064,-0.106c0.014,-0.036 0.03,-0.066 0.048,-0.091c0.018,-0.025 0.034,-0.055 0.048,-0.09c0.021,-0.029 0.041,-0.057 0.059,-0.086c0.017,-0.028 0.033,-0.06 0.047,-0.095c0.029,-0.057 0.057,-0.11 0.086,-0.16c0.028,-0.05 0.056,-0.103 0.085,-0.16l0.159,-0.319c0.008,-0.007 0.011,-0.021 0.011,-0.043l0,-0.032c0,-0.021 -0.011,-0.042 -0.032,-0.063c-0.014,-0.015 -0.035,-0.022 -0.064,-0.022l-0.01,0c-0.05,0.007 -0.091,0.022 -0.123,0.043c-0.032,0.021 -0.062,0.042 -0.09,0.064c-0.014,0.014 -0.022,0.021 -0.022,0.021c-0.071,0.057 -0.141,0.112 -0.212,0.165c-0.071,0.053 -0.139,0.108 -0.203,0.165l-0.01,0c-0.05,0.043 -0.096,0.087 -0.139,0.133c-0.042,0.046 -0.088,0.094 -0.138,0.144l-0.128,0.127l-0.181,0.181c-0.064,0.057 -0.126,0.118 -0.186,0.181c-0.06,0.064 -0.119,0.128 -0.176,0.192c-0.078,0.085 -0.159,0.17 -0.245,0.256c-0.085,0.085 -0.17,0.173 -0.255,0.266l-0.011,0c-0.021,0.028 -0.042,0.053 -0.064,0.074c-0.021,0.021 -0.042,0.046 -0.063,0.075l-0.139,0.138l-0.309,0.309c-0.071,0.057 -0.159,0.085 -0.266,0.085c-0.056,0 -0.106,-0.011 -0.149,-0.032c-0.064,-0.036 -0.099,-0.085 -0.106,-0.149c-0.014,-0.064 -0.004,-0.124 0.032,-0.181c0.071,-0.099 0.142,-0.197 0.213,-0.293c0.071,-0.096 0.138,-0.193 0.202,-0.292l0,-0.011l0.064,-0.096c0.014,-0.028 0.028,-0.055 0.042,-0.08c0.015,-0.025 0.029,-0.048 0.043,-0.069l0.011,0c0.042,-0.078 0.088,-0.158 0.138,-0.239c0.05,-0.082 0.096,-0.162 0.138,-0.24l0.288,-0.479c0.035,-0.057 0.071,-0.119 0.106,-0.186c0.036,-0.068 0.064,-0.126 0.085,-0.176c0.05,-0.106 0.125,-0.16 0.224,-0.16c0.007,0 0.032,0.007 0.074,0.022c0.057,0.021 0.1,0.06 0.128,0.117c0.029,0.057 0.036,0.117 0.022,0.181c-0.022,0.021 -0.032,0.056 -0.032,0.106c0,0.036 0.017,0.064 0.053,0.085c0.007,0 0.012,0.002 0.016,0.006c0.003,0.003 0.009,0.005 0.016,0.005c0.014,0 0.035,-0.007 0.064,-0.021c0.028,-0.029 0.055,-0.054 0.079,-0.075c0.025,-0.021 0.048,-0.042 0.07,-0.064c0.035,-0.035 0.072,-0.072 0.111,-0.111c0.039,-0.04 0.08,-0.077 0.123,-0.112l0.032,-0.022c0.064,-0.056 0.127,-0.111 0.191,-0.165c0.064,-0.053 0.132,-0.104 0.203,-0.154c0.021,-0.007 0.046,-0.025 0.074,-0.053c0.071,-0.05 0.139,-0.096 0.202,-0.138c0.064,-0.043 0.135,-0.075 0.213,-0.096c0.057,-0.022 0.116,-0.036 0.176,-0.043c0.06,-0.007 0.122,-0.011 0.186,-0.011l0.117,0c0.064,0.022 0.125,0.071 0.181,0.15c0.057,0.078 0.082,0.149 0.075,0.212c-0.007,0.149 -0.053,0.295 -0.139,0.437c-0.021,0.028 -0.049,0.078 -0.085,0.149c-0.021,0.05 -0.014,0.085 0.022,0.106c0.021,0.022 0.042,0.032 0.063,0.032c0.008,0 0.025,-0.007 0.054,-0.021c0.007,-0.007 0.014,-0.011 0.021,-0.011c0.014,0 0.032,-0.01 0.053,-0.032c0.078,-0.063 0.162,-0.122 0.25,-0.175c0.089,-0.053 0.18,-0.105 0.272,-0.155c0.163,-0.078 0.323,-0.124 0.479,-0.138l0.074,0c0.036,0 0.069,0.002 0.101,0.005c0.032,0.004 0.07,0.009 0.112,0.016c0.014,0.007 0.029,0.014 0.043,0.022c0.014,0.007 0.028,0.017 0.042,0.032c0.135,0.184 0.171,0.369 0.107,0.553l-0.011,0c-0.021,0.078 -0.051,0.158 -0.09,0.24c-0.039,0.081 -0.077,0.161 -0.112,0.239c-0.014,0.014 -0.025,0.032 -0.032,0.053c-0.007,0.022 -0.018,0.039 -0.032,0.054c-0.035,0.071 -0.066,0.14 -0.09,0.207c-0.025,0.068 -0.052,0.14 -0.08,0.218l-0.064,0.16c-0.014,0.05 -0.032,0.098 -0.053,0.144c-0.022,0.046 -0.043,0.097 -0.064,0.154c-0.014,0.036 -0.007,0.064 0.021,0.085c0.007,0.022 0.028,0.032 0.064,0.032l0.021,0c0.114,-0.021 0.217,-0.06 0.309,-0.117c0.042,-0.035 0.085,-0.067 0.128,-0.096c0.042,-0.028 0.081,-0.056 0.117,-0.085c0.042,-0.035 0.085,-0.067 0.127,-0.096c0.043,-0.028 0.086,-0.056 0.128,-0.085l0,-0.01c0.064,-0.043 0.117,-0.086 0.16,-0.128c0,-0.007 0.003,-0.011 0.011,-0.011c0.099,-0.099 0.196,-0.206 0.292,-0.319c0.096,-0.114 0.183,-0.231 0.261,-0.352c0.05,-0.078 0.114,-0.117 0.192,-0.117c0.092,0 0.159,0.039 0.202,0.117c0.057,0.086 0.057,0.167 0,0.245c-0.064,0.093 -0.133,0.185 -0.208,0.277c-0.074,0.092 -0.161,0.192 -0.26,0.298c-0.185,0.206 -0.387,0.387 -0.607,0.543c-0.128,0.092 -0.27,0.185 -0.426,0.277c-0.199,0.099 -0.376,0.149 -0.532,0.149Z" style="fill:#01a08c;fill-rule:nonzero;"/></g></g></g></svg>
