<?xml version="1.0" encoding="UTF-8" standalone="no"?><!DOCTYPE svg PUBLIC "-//W3C//DTD SVG 1.1//EN" "http://www.w3.org/Graphics/SVG/1.1/DTD/svg11.dtd"><svg width="8rem" height="5rem" viewBox="0 0 106 54" version="1.1" xmlns="http://www.w3.org/2000/svg" xmlns:xlink="http://www.w3.org/1999/xlink" xml:space="preserve" xmlns:serif="http://www.serif.com/" style="fill-rule:evenodd;clip-rule:evenodd;stroke-linejoin:round;stroke-miterlimit:1.41421;"><g><path d="M1.658,39.503c0.381,-0.872 0.899,-1.634 1.552,-2.287c0.654,-0.654 1.389,-1.144 2.205,-1.471c0.817,-0.326 1.688,-0.503 2.614,-0.53c0.926,-0.028 1.824,0.149 2.695,0.53c1.797,0.763 3.05,2.029 3.757,3.798c0.708,1.77 0.708,3.553 0,5.35c-0.599,1.307 -0.844,2.45 -0.735,3.431c0.109,0.98 0.3,1.796 0.572,2.45c0.327,0.762 0.817,1.416 1.47,1.96c-1.143,0.055 -2.341,-0.027 -3.594,-0.245c-1.089,-0.218 -2.273,-0.558 -3.552,-1.021c-1.28,-0.463 -2.546,-1.211 -3.798,-2.246c-3.649,-2.995 -4.71,-6.235 -3.186,-9.719Zm27.833,13.558c-0.109,0.054 -0.231,0.081 -0.368,0.081c-0.136,0 -0.258,0.028 -0.367,0.082l0,-18.785l0,-33.456l14.947,0l0,32.312c0,2.396 -0.382,4.683 -1.144,6.861c-0.762,2.178 -1.797,4.138 -3.104,5.881c-1.306,1.742 -2.817,3.226 -4.533,4.451c-1.715,1.225 -3.525,2.083 -5.431,2.573Z" style="fill-rule:nonzero;"/><path d="M104.369,15.44c-0.436,0.925 -1.007,1.742 -1.715,2.45c-0.708,0.708 -1.511,1.239 -2.41,1.593c-0.898,0.353 -1.851,0.544 -2.858,0.571c-1.008,0.027 -1.974,-0.177 -2.9,-0.612c-0.98,-0.381 -1.81,-0.94 -2.491,-1.675c-0.681,-0.735 -1.198,-1.552 -1.552,-2.45c-0.354,-0.898 -0.544,-1.838 -0.572,-2.818c-0.027,-0.98 0.177,-1.933 0.613,-2.858c0.599,-1.416 0.858,-2.655 0.776,-3.717c-0.082,-1.061 -0.286,-1.946 -0.613,-2.654c-0.381,-0.817 -0.898,-1.525 -1.551,-2.124c1.197,0 2.477,0.109 3.838,0.327c1.144,0.218 2.396,0.585 3.757,1.103c1.362,0.517 2.75,1.32 4.166,2.409c3.866,3.158 5.037,6.643 3.512,10.455Zm-1.47,16.303l0,20.991l-16.172,0c2.124,-1.525 4.193,-3.321 6.207,-5.391c1.743,-1.742 3.526,-3.92 5.35,-6.534c1.824,-2.613 3.362,-5.635 4.615,-9.066Z" style="fill-rule:nonzero;"/><path d="M77.108,52.457c-3.213,0 -6.275,-0.681 -9.189,-2.044c-2.913,-1.362 -5.472,-3.21 -7.677,-5.542c-2.205,-2.332 -3.975,-5.057 -5.309,-8.175c-1.334,-3.117 -2.001,-6.454 -2.001,-10.011c0,-3.556 0.64,-6.893 1.919,-10.01c1.28,-3.118 3.022,-5.831 5.228,-8.141c2.205,-2.309 4.737,-4.133 7.595,-5.473c2.859,-1.339 5.895,-2.009 9.107,-2.009l0.572,0c-1.089,0.97 -2.083,2.31 -2.981,4.018c-0.899,1.709 -1.674,3.684 -2.328,5.924c-0.653,2.24 -1.157,4.688 -1.511,7.343c-0.354,2.656 -0.531,5.439 -0.531,8.348c0,2.91 0.177,5.693 0.531,8.348c0.354,2.656 0.858,5.104 1.511,7.344c0.654,2.24 1.429,4.226 2.328,5.958c0.898,1.732 1.892,3.106 2.981,4.122l-0.245,0Z" style="fill-rule:nonzero;"/></g></svg>
