<?xml version="1.0" encoding="UTF-8" standalone="no"?><!DOCTYPE svg PUBLIC "-//W3C//DTD SVG 1.1//EN" "http://www.w3.org/Graphics/SVG/1.1/DTD/svg11.dtd"><svg width="100%" height="100%" viewBox="0 0 20 11" version="1.1" xmlns="http://www.w3.org/2000/svg" xmlns:xlink="http://www.w3.org/1999/xlink" xml:space="preserve" xmlns:serif="http://www.serif.com/" style="fill-rule:evenodd;clip-rule:evenodd;stroke-linejoin:round;stroke-miterlimit:1.41421;"><g><path d="M1.03,7.701c0.067,-0.153 0.158,-0.287 0.273,-0.402c0.115,-0.115 0.244,-0.201 0.388,-0.259c0.144,-0.057 0.297,-0.088 0.46,-0.093c0.163,-0.005 0.321,0.026 0.474,0.093c0.316,0.134 0.536,0.357 0.661,0.668c0.125,0.312 0.125,0.625 0,0.942c-0.105,0.23 -0.148,0.431 -0.129,0.603c0.019,0.173 0.052,0.316 0.1,0.431c0.058,0.134 0.144,0.249 0.259,0.345c-0.201,0.01 -0.412,-0.005 -0.632,-0.043c-0.192,-0.038 -0.4,-0.098 -0.625,-0.18c-0.226,-0.081 -0.448,-0.213 -0.669,-0.395c-0.642,-0.527 -0.828,-1.097 -0.56,-1.71Zm4.897,2.386c-0.019,0.009 -0.041,0.014 -0.065,0.014c-0.024,0 -0.045,0.005 -0.065,0.014l0,-3.305l0,-5.886l2.63,0l0,5.685c0,0.422 -0.067,0.824 -0.201,1.207c-0.134,0.383 -0.316,0.728 -0.546,1.035c-0.23,0.306 -0.496,0.567 -0.798,0.783c-0.301,0.216 -0.62,0.366 -0.955,0.453Z" style="fill:#fff;fill-rule:nonzero;"/><path d="M19.101,3.468c-0.077,0.162 -0.177,0.306 -0.302,0.431c-0.124,0.124 -0.266,0.218 -0.424,0.28c-0.158,0.062 -0.326,0.096 -0.503,0.1c-0.177,0.005 -0.347,-0.031 -0.51,-0.107c-0.172,-0.067 -0.318,-0.166 -0.438,-0.295c-0.12,-0.129 -0.211,-0.273 -0.273,-0.431c-0.063,-0.158 -0.096,-0.323 -0.101,-0.496c-0.005,-0.172 0.031,-0.34 0.108,-0.503c0.105,-0.249 0.151,-0.467 0.136,-0.654c-0.014,-0.186 -0.05,-0.342 -0.107,-0.467c-0.067,-0.143 -0.158,-0.268 -0.273,-0.373c0.21,0 0.436,0.019 0.675,0.057c0.201,0.039 0.422,0.103 0.661,0.194c0.24,0.091 0.484,0.233 0.733,0.424c0.68,0.556 0.886,1.169 0.618,1.84Zm-0.259,2.868l0,3.693l-2.845,0c0.374,-0.268 0.738,-0.584 1.092,-0.948c0.307,-0.307 0.62,-0.69 0.941,-1.15c0.321,-0.46 0.592,-0.991 0.812,-1.595Z" style="fill:#fff;fill-rule:nonzero;"/><path d="M14.305,9.98c-0.566,0 -1.105,-0.119 -1.617,-0.359c-0.513,-0.24 -0.963,-0.565 -1.351,-0.975c-0.388,-0.411 -0.699,-0.89 -0.934,-1.439c-0.235,-0.548 -0.352,-1.135 -0.352,-1.761c0,-0.626 0.113,-1.213 0.338,-1.761c0.225,-0.549 0.531,-1.026 0.919,-1.432c0.388,-0.407 0.834,-0.728 1.337,-0.963c0.503,-0.236 1.037,-0.354 1.602,-0.354l0.101,0c-0.192,0.171 -0.367,0.407 -0.525,0.707c-0.158,0.301 -0.294,0.648 -0.409,1.042c-0.115,0.394 -0.204,0.825 -0.266,1.292c-0.062,0.468 -0.094,0.957 -0.094,1.469c0,0.512 0.032,1.002 0.094,1.469c0.062,0.467 0.151,0.898 0.266,1.292c0.115,0.394 0.251,0.743 0.409,1.048c0.158,0.305 0.333,0.547 0.525,0.725l-0.043,0Z" style="fill:#fff;fill-rule:nonzero;"/></g></svg>