<?xml version="1.0" encoding="UTF-8"?><svg version="1.1" viewBox="0 0 48 34" xmlns="http://www.w3.org/2000/svg" xmlns:xlink="http://www.w3.org/1999/xlink"><!--Generated by IJSVG (https://github.com/iconjar/IJSVG)--><path d="M219.044,391.27l-0.0015,-13.5822l12.969,6.8145l-12.9675,6.76767Zm28.476,-15.9358c0,0 -0.4695,-3.33096 -1.908,-4.7978c-1.8255,-1.92607 -3.8715,-1.93513 -4.809,-2.04692c-6.717,-0.489448 -16.7925,-0.489448 -16.7925,-0.489448h-0.021c0,0 -10.0755,0 -16.7925,0.489448c-0.939,0.111787 -2.9835,0.120851 -4.8105,2.04692c-1.4385,1.46683 -1.9065,4.7978 -1.9065,4.7978c0,0 -0.48,3.91256 -0.48,7.82361v3.66784c0,3.91256 0.48,7.82361 0.48,7.82361c0,0 0.468,3.33096 1.9065,4.7978c1.827,1.92607 4.2255,1.86564 5.2935,2.06656c3.84,0.371617 16.32,0.486426 16.32,0.486426c0,0 10.086,-0.015106 16.803,-0.504554c0.9375,-0.113298 2.9835,-0.122362 4.809,-2.04843c1.4385,-1.46683 1.908,-4.7978 1.908,-4.7978c0,0 0.48,-3.91105 0.48,-7.82361v-3.66784c0,-3.91105 -0.48,-7.82361 -0.48,-7.82361v0Z" transform="matrix(1,0,0,1,-200,-368)" fill-rule="evenodd" fill="#000" stroke="none"></path></svg>